<svg viewBox="-0.5 -0.5 16 16" fill="#000000" xmlns="http://www.w3.org/2000/svg" id="Shopping-Cart-2-Line--Streamline-Remix.svg" height="16" width="16"><desc>Shopping Cart 2 Line Streamline Icon: https://streamlinehq.com</desc><path d="M2.5130000000000003 3.3725625L0.2690625 1.128625L1.2476875 0.15L3.491625 2.3939375H14.0389375C14.421125 2.3939375 14.730937500000001 2.70375 14.730937500000001 3.0859375C14.730937500000001 3.1532500000000003 14.721124999999999 3.22025 14.701812499999999 3.2847500000000003L13.041 8.8208125C12.9531875 9.1135 12.68375 9.314 12.378125 9.314H3.897V10.698H11.5090625V12.081999999999999H3.205C2.8228125 12.081999999999999 2.5130000000000003 11.772124999999999 2.5130000000000003 11.39V3.3725625ZM3.897 3.7779374999999997V7.930000000000001H11.86325L13.108875 3.7779374999999997H3.897ZM3.551 14.850000000000001C2.9776875 14.850000000000001 2.5130000000000003 14.385250000000001 2.5130000000000003 13.812C2.5130000000000003 13.2386875 2.9776875 12.774000000000001 3.551 12.774000000000001S4.5889999999999995 13.2386875 4.5889999999999995 13.812C4.5889999999999995 14.385250000000001 4.12425 14.850000000000001 3.551 14.850000000000001ZM11.855062499999999 14.850000000000001C11.281749999999999 14.850000000000001 10.8170625 14.385250000000001 10.8170625 13.812C10.8170625 13.2386875 11.281749999999999 12.774000000000001 11.855062499999999 12.774000000000001C12.4283125 12.774000000000001 12.893062500000001 13.2386875 12.893062500000001 13.812C12.893062500000001 14.385250000000001 12.4283125 14.850000000000001 11.855062499999999 14.850000000000001Z" stroke-width="1"></path></svg>